<svg width="49" height="49" viewBox="0 0 49 49" fill="none" xmlns="http://www.w3.org/2000/svg">
<g clip-path="url(#clip0_645_6146)">
<path d="M34.8337 32.824C33.896 31.8866 32.6245 31.3601 31.2987 31.3601C29.9729 31.3601 28.7013 31.8866 27.7637 32.824L26.9937 33.594C22.8037 30.0794 18.9296 26.2046 15.4157 22.014L16.1877 21.246C17.1227 20.3067 17.6476 19.0353 17.6476 17.71C17.6476 16.3847 17.1227 15.1133 16.1877 14.174L11.9417 9.93C11.004 8.99264 9.73249 8.46606 8.40667 8.46606C7.08085 8.46606 5.80931 8.99264 4.87167 9.93L2.54367 12.26C1.40906 13.4028 0.701971 14.9009 0.541014 16.5032C0.380057 18.1055 0.775029 19.7144 1.65967 21.06C8.57976 31.4882 17.5165 40.4263 27.9437 47.348C29.2932 48.2207 30.8994 48.6086 32.4986 48.448C34.0977 48.2874 35.5947 47.5877 36.7437 46.464L39.0737 44.136C40.011 43.1984 40.5376 41.9268 40.5376 40.601C40.5376 39.2752 40.011 38.0036 39.0737 37.066L34.8337 32.824Z" fill="white"/>
<path d="M23.5 0.513916C22.9696 0.513916 22.4609 0.72463 22.0858 1.0997C21.7107 1.47478 21.5 1.98348 21.5 2.51392C21.5 3.04435 21.7107 3.55306 22.0858 3.92813C22.4609 4.3032 22.9696 4.51392 23.5 4.51392C29.0676 4.52027 34.4053 6.7348 38.3422 10.6717C42.2791 14.6086 44.4936 19.9463 44.5 25.5139C44.5 26.0443 44.7107 26.5531 45.0858 26.9281C45.4609 27.3032 45.9696 27.5139 46.5 27.5139C47.0304 27.5139 47.5391 27.3032 47.9142 26.9281C48.2893 26.5531 48.5 26.0443 48.5 25.5139C48.4921 18.8859 45.8556 12.5317 41.1689 7.84502C36.4822 3.15833 30.128 0.521855 23.5 0.513916V0.513916Z" fill="white"/>
<path d="M23.5 12.5139C26.9465 12.5182 30.2507 13.8891 32.6877 16.3262C35.1248 18.7633 36.4958 22.0674 36.5 25.5139C36.5 26.0443 36.7107 26.5531 37.0858 26.9281C37.4609 27.3032 37.9696 27.5139 38.5 27.5139C39.0304 27.5139 39.5391 27.3032 39.9142 26.9281C40.2893 26.5531 40.5 26.0443 40.5 25.5139C40.4947 21.0069 38.7019 16.6859 35.515 13.4989C32.328 10.312 28.0071 8.51921 23.5 8.51392C22.9696 8.51392 22.4609 8.72463 22.0858 9.0997C21.7107 9.47478 21.5 9.98348 21.5 10.5139C21.5 11.0443 21.7107 11.5531 22.0858 11.9281C22.4609 12.3032 22.9696 12.5139 23.5 12.5139V12.5139Z" fill="white"/>
<path d="M23.5 20.5139C24.8261 20.5139 26.0979 21.0407 27.0355 21.9784C27.9732 22.9161 28.5 24.1878 28.5 25.5139C28.5 26.0443 28.7107 26.5531 29.0858 26.9281C29.4609 27.3032 29.9696 27.5139 30.5 27.5139C31.0304 27.5139 31.5391 27.3032 31.9142 26.9281C32.2893 26.5531 32.5 26.0443 32.5 25.5139C32.4974 23.1278 31.5483 20.8401 29.861 19.1529C28.1738 17.4656 25.8861 16.5166 23.5 16.5139C22.9696 16.5139 22.4609 16.7246 22.0858 17.0997C21.7107 17.4748 21.5 17.9835 21.5 18.5139C21.5 19.0443 21.7107 19.5531 22.0858 19.9281C22.4609 20.3032 22.9696 20.5139 23.5 20.5139V20.5139Z" fill="white"/>
</g>
<defs>
<clipPath id="clip0_645_6146">
<rect width="48" height="48" fill="white" transform="translate(0.5 0.5)"/>
</clipPath>
</defs>
</svg>
