<svg width="18" height="18" viewBox="0 0 18 18" fill="none" xmlns="http://www.w3.org/2000/svg">
<path d="M10.7251 9.13422C10.7076 9.11681 10.6938 9.09611 10.6843 9.07333C10.6749 9.05056 10.67 9.02613 10.67 9.00147C10.67 8.97681 10.6749 8.95239 10.6843 8.92961C10.6938 8.90683 10.7076 8.88614 10.7251 8.86872L17.6723 1.92222C17.8833 1.71098 18.0017 1.42459 18.0015 1.12605C18.0013 0.827517 17.8825 0.541293 17.6712 0.330347C17.46 0.1194 17.1736 0.00101001 16.875 0.00122098C16.5765 0.00143196 16.2903 0.120227 16.0793 0.331472L9.13284 7.27497C9.11543 7.29243 9.09474 7.30629 9.07196 7.31574C9.04918 7.32519 9.02476 7.33006 9.00009 7.33006C8.97543 7.33006 8.95101 7.32519 8.92823 7.31574C8.90545 7.30629 8.88476 7.29243 8.86734 7.27497L1.92085 0.331472C1.8164 0.226972 1.69238 0.144069 1.5559 0.0874956C1.41941 0.030922 1.27311 0.00178612 1.12536 0.0017513C0.826967 0.00168097 0.540766 0.12015 0.32972 0.331097C0.118674 0.542043 7.03574e-05 0.828188 3.12926e-08 1.12658C-7.02948e-05 1.42498 0.118399 1.71118 0.329345 1.92222L7.27509 8.86872C7.29256 8.88614 7.30641 8.90683 7.31586 8.92961C7.32531 8.95239 7.33018 8.97681 7.33018 9.00147C7.33018 9.02613 7.32531 9.05056 7.31586 9.07333C7.30641 9.09611 7.29256 9.11681 7.27509 9.13422L0.329345 16.0815C0.224895 16.186 0.14205 16.31 0.0855413 16.4465C0.0290322 16.5831 -3.47907e-05 16.7294 3.12926e-08 16.8771C7.03574e-05 17.1755 0.118674 17.4616 0.32972 17.6726C0.43422 17.777 0.558269 17.8599 0.694785 17.9164C0.831301 17.9729 0.977611 18.002 1.12536 18.0019C1.42375 18.0019 1.7099 17.8833 1.92085 17.6722L8.86734 10.725C8.88476 10.7075 8.90545 10.6937 8.92823 10.6842C8.95101 10.6748 8.97543 10.6699 9.00009 10.6699C9.02476 10.6699 9.04918 10.6748 9.07196 10.6842C9.09474 10.6937 9.11543 10.7075 9.13284 10.725L16.0793 17.6722C16.2903 17.8833 16.5764 18.0019 16.8748 18.0019C17.1732 18.002 17.4594 17.8835 17.6705 17.6726C17.8815 17.4617 18.0001 17.1755 18.0002 16.8771C18.0003 16.5787 17.8818 16.2925 17.6708 16.0815L10.7251 9.13422Z" fill="white"/>
</svg>
