<svg width="47" height="47" viewBox="0 0 47 47" fill="none" xmlns="http://www.w3.org/2000/svg">
<g clip-path="url(#clip0_645_3306)">
<path d="M26.8533 14.8861C26.8536 16.7429 26.4183 18.5738 25.5825 20.2317C25.4933 20.4133 25.4637 20.6184 25.4982 20.8177C25.5326 21.0171 25.6292 21.2004 25.7742 21.3415C27.457 23.0298 29.7404 23.9823 32.1241 23.9903C34.5387 23.9903 36.8544 23.0311 38.5618 21.3238C40.2691 19.6164 41.2283 17.3007 41.2283 14.8861C41.2283 12.4716 40.2691 10.1559 38.5618 8.44853C36.8544 6.74117 34.5387 5.78198 32.1241 5.78198C29.7371 5.78747 27.4498 6.74016 25.7646 8.43082C25.6196 8.57189 25.523 8.75522 25.4886 8.95457C25.4542 9.15391 25.4837 9.35903 25.573 9.54057C26.4121 11.1977 26.8506 13.0287 26.8533 14.8861Z" fill="white"/>
<path d="M32.1249 24.9487C30.5753 24.9493 29.0363 25.2037 27.569 25.702C27.4151 25.7533 27.2768 25.8429 27.167 25.9623C27.0572 26.0817 26.9795 26.2271 26.9412 26.3847C26.9029 26.5423 26.9052 26.7071 26.9479 26.8636C26.9907 27.0201 27.0725 27.1631 27.1856 27.2794C30.3494 30.4901 32.1235 34.8162 32.1249 39.3237C32.1249 39.5779 32.2258 39.8217 32.4056 40.0014C32.5853 40.1811 32.829 40.2821 33.0832 40.2821H45.5415C45.7957 40.2821 46.0395 40.1811 46.2192 40.0014C46.3989 39.8217 46.4999 39.5779 46.4999 39.3237C46.4958 35.5125 44.98 31.8585 42.2851 29.1636C39.5901 26.4686 35.9361 24.9528 32.1249 24.9487Z" fill="white"/>
<path d="M14.8747 23.9903C19.9028 23.9903 23.9788 19.9142 23.9788 14.8861C23.9788 9.85806 19.9028 5.78198 14.8747 5.78198C9.84658 5.78198 5.77051 9.85806 5.77051 14.8861C5.77051 19.9142 9.84658 23.9903 14.8747 23.9903Z" fill="white"/>
<path d="M29.25 39.3237C29.25 35.5112 27.7355 31.8549 25.0397 29.1591C22.3438 26.4632 18.6875 24.9487 14.875 24.9487C11.0625 24.9487 7.40618 26.4632 4.71034 29.1591C2.0145 31.8549 0.5 35.5112 0.5 39.3237C0.5 39.5779 0.600967 39.8217 0.780689 40.0014C0.960412 40.1811 1.20417 40.2821 1.45833 40.2821H28.2917C28.5458 40.2821 28.7896 40.1811 28.9693 40.0014C29.149 39.8217 29.25 39.5779 29.25 39.3237Z" fill="white"/>
</g>
<defs>
<clipPath id="clip0_645_3306">
<rect width="46" height="46" fill="white" transform="translate(0.5 0.0319824)"/>
</clipPath>
</defs>
</svg>
