<svg width="40" height="48" viewBox="0 0 40 48" fill="none" xmlns="http://www.w3.org/2000/svg">
<path d="M26.0724 3.746L19.2954 20H14.5704L21.4284 4.259H13.0314V0.316999H26.0724V3.746ZM0.367423 36.4C0.367423 35.2533 0.580756 34.2467 1.00742 33.38C1.44742 32.5133 2.04076 31.8467 2.78742 31.38C3.53409 30.9133 4.36742 30.68 5.28742 30.68C6.02076 30.68 6.68742 30.8333 7.28742 31.14C7.90076 31.4467 8.38076 31.86 8.72742 32.38V27.2H12.1474V42H8.72742V40.4C8.40742 40.9333 7.94742 41.36 7.34742 41.68C6.76076 42 6.07409 42.16 5.28742 42.16C4.36742 42.16 3.53409 41.9267 2.78742 41.46C2.04076 40.98 1.44742 40.3067 1.00742 39.44C0.580756 38.56 0.367423 37.5467 0.367423 36.4ZM8.72742 36.42C8.72742 35.5667 8.48742 34.8933 8.00742 34.4C7.54076 33.9067 6.96742 33.66 6.28742 33.66C5.60742 33.66 5.02742 33.9067 4.54742 34.4C4.08076 34.88 3.84742 35.5467 3.84742 36.4C3.84742 37.2533 4.08076 37.9333 4.54742 38.44C5.02742 38.9333 5.60742 39.18 6.28742 39.18C6.96742 39.18 7.54076 38.9333 8.00742 38.44C8.48742 37.9467 8.72742 37.2733 8.72742 36.42ZM13.7416 36.4C13.7416 35.2533 13.955 34.2467 14.3816 33.38C14.8216 32.5133 15.415 31.8467 16.1616 31.38C16.9083 30.9133 17.7416 30.68 18.6616 30.68C19.4483 30.68 20.135 30.84 20.7216 31.16C21.3216 31.48 21.7816 31.9 22.1016 32.42V30.84H25.5216V42H22.1016V40.42C21.7683 40.94 21.3016 41.36 20.7016 41.68C20.115 42 19.4283 42.16 18.6416 42.16C17.735 42.16 16.9083 41.9267 16.1616 41.46C15.415 40.98 14.8216 40.3067 14.3816 39.44C13.955 38.56 13.7416 37.5467 13.7416 36.4ZM22.1016 36.42C22.1016 35.5667 21.8616 34.8933 21.3816 34.4C20.915 33.9067 20.3416 33.66 19.6616 33.66C18.9816 33.66 18.4016 33.9067 17.9216 34.4C17.455 34.88 17.2216 35.5467 17.2216 36.4C17.2216 37.2533 17.455 37.9333 17.9216 38.44C18.4016 38.9333 18.9816 39.18 19.6616 39.18C20.3416 39.18 20.915 38.9333 21.3816 38.44C21.8616 37.9467 22.1016 37.2733 22.1016 36.42ZM39.1959 30.84L32.1959 47.3H28.5159L31.0759 41.62L26.5359 30.84H30.3559L32.9359 37.82L35.4959 30.84H39.1959Z" fill="white"/>
</svg>
