<svg width="49" height="48" viewBox="0 0 49 48" fill="none" xmlns="http://www.w3.org/2000/svg">
<path d="M42.914 9.586L33.914 0.586C33.539 0.210901 33.0304 0.000113275 32.5 0L9.5 0C8.43913 0 7.42172 0.421427 6.67157 1.17157C5.92143 1.92172 5.5 2.93913 5.5 4V44C5.5 45.0609 5.92143 46.0783 6.67157 46.8284C7.42172 47.5786 8.43913 48 9.5 48H39.5C40.5609 48 41.5783 47.5786 42.3284 46.8284C43.0786 46.0783 43.5 45.0609 43.5 44V11C43.4999 10.4696 43.2891 9.96099 42.914 9.586ZM37.5 44H11.5C10.9696 44 10.4609 43.7893 10.0858 43.4142C9.71071 43.0391 9.5 42.5304 9.5 42V6C9.5 5.46957 9.71071 4.96086 10.0858 4.58579C10.4609 4.21071 10.9696 4 11.5 4H30.844C31.3744 4.00011 31.883 4.2109 32.258 4.586L38.914 11.242C39.2891 11.617 39.4999 12.1256 39.5 12.656V42C39.5 42.5304 39.2893 43.0391 38.9142 43.4142C38.5391 43.7893 38.0304 44 37.5 44Z" fill="white"/>
<path d="M25.1887 19.816C25.1919 18.879 24.9125 17.9629 24.387 17.1872C23.8614 16.4115 23.1141 15.8124 22.2427 15.468L18.1167 13.818C17.9698 13.7585 17.8481 13.6499 17.7725 13.5106C17.6968 13.3714 17.6718 13.2102 17.7018 13.0546C17.7318 12.8989 17.8149 12.7586 17.9369 12.6574C18.0589 12.5563 18.2122 12.5006 18.3707 12.5H22.4387C22.9692 12.5 23.4779 12.2893 23.8529 11.9142C24.228 11.5391 24.4387 11.0304 24.4387 10.5C24.4387 9.96957 24.228 9.46086 23.8529 9.08579C23.4779 8.71071 22.9692 8.5 22.4387 8.5H21.9387C21.8061 8.5 21.6789 8.44732 21.5852 8.35355C21.4914 8.25979 21.4387 8.13261 21.4387 8C21.4387 7.46957 21.228 6.96086 20.8529 6.58579C20.4779 6.21071 19.9692 6 19.4387 6C18.9083 6 18.3996 6.21071 18.0245 6.58579C17.6494 6.96086 17.4387 7.46957 17.4387 8V8.2C17.4383 8.30836 17.4028 8.41367 17.3375 8.50018C17.2723 8.5867 17.1808 8.64978 17.0767 8.68C16.1386 8.94983 15.3082 9.50601 14.7016 10.2708C14.0951 11.0356 13.7426 11.9708 13.6934 12.9457C13.6443 13.9206 13.901 14.8866 14.4276 15.7085C14.9542 16.5304 15.7245 17.1672 16.6307 17.53L20.7587 19.18C20.9073 19.2388 21.0305 19.3477 21.1072 19.4878C21.1838 19.6279 21.209 19.7905 21.1784 19.9472C21.1477 20.104 21.0632 20.2451 20.9394 20.3461C20.8157 20.447 20.6604 20.5015 20.5007 20.5H16.4387C15.9083 20.5 15.3996 20.7107 15.0245 21.0858C14.6494 21.4609 14.4387 21.9696 14.4387 22.5C14.4387 23.0304 14.6494 23.5391 15.0245 23.9142C15.3996 24.2893 15.9083 24.5 16.4387 24.5H16.9387C17.0713 24.5 17.1985 24.5527 17.2923 24.6464C17.386 24.7402 17.4387 24.8674 17.4387 25C17.4387 25.5304 17.6494 26.0391 18.0245 26.4142C18.3996 26.7893 18.9083 27 19.4387 27C19.9692 27 20.4779 26.7893 20.8529 26.4142C21.228 26.0391 21.4387 25.5304 21.4387 25V24.8C21.4383 24.6915 21.4732 24.5858 21.5381 24.4988C21.6031 24.4118 21.6945 24.3484 21.7987 24.318C22.7755 24.0366 23.6343 23.4453 24.2457 22.6333C24.8572 21.8212 25.1881 20.8325 25.1887 19.816Z" fill="white"/>
<path d="M12.5 31V33C12.5 33.2652 12.6054 33.5196 12.7929 33.7071C12.9804 33.8946 13.2348 34 13.5 34H20C20.1326 34 20.2598 33.9473 20.3536 33.8536C20.4473 33.7598 20.5 33.6326 20.5 33.5V30.5C20.5 30.3674 20.4473 30.2402 20.3536 30.1464C20.2598 30.0527 20.1326 30 20 30H13.5C13.2348 30 12.9804 30.1054 12.7929 30.2929C12.6054 30.4804 12.5 30.7348 12.5 31Z" fill="white"/>
<path d="M12.5 37V39C12.5 39.2652 12.6054 39.5196 12.7929 39.7071C12.9804 39.8946 13.2348 40 13.5 40H20C20.1326 40 20.2598 39.9473 20.3536 39.8536C20.4473 39.7598 20.5 39.6326 20.5 39.5V36.5C20.5 36.3674 20.4473 36.2402 20.3536 36.1464C20.2598 36.0527 20.1326 36 20 36H13.5C13.2348 36 12.9804 36.1054 12.7929 36.2929C12.6054 36.4804 12.5 36.7348 12.5 37Z" fill="white"/>
<path d="M22.5 33.5C22.5 33.6326 22.5527 33.7598 22.6464 33.8536C22.7402 33.9473 22.8674 34 23 34H34.5C34.7652 34 35.0196 33.8946 35.2071 33.7071C35.3946 33.5196 35.5 33.2652 35.5 33V31C35.5 30.7348 35.3946 30.4804 35.2071 30.2929C35.0196 30.1054 34.7652 30 34.5 30H23C22.8674 30 22.7402 30.0527 22.6464 30.1464C22.5527 30.2402 22.5 30.3674 22.5 30.5V33.5Z" fill="white"/>
<path d="M34.5 36H23C22.8674 36 22.7402 36.0527 22.6464 36.1464C22.5527 36.2402 22.5 36.3674 22.5 36.5V39.5C22.5 39.6326 22.5527 39.7598 22.6464 39.8536C22.7402 39.9473 22.8674 40 23 40H34.5C34.7652 40 35.0196 39.8946 35.2071 39.7071C35.3946 39.5196 35.5 39.2652 35.5 39V37C35.5 36.7348 35.3946 36.4804 35.2071 36.2929C35.0196 36.1054 34.7652 36 34.5 36Z" fill="white"/>
</svg>
