<svg width="48" height="48" viewBox="0 0 48 48" fill="none" xmlns="http://www.w3.org/2000/svg">
<g clip-path="url(#clip0_645_3161)">
<path d="M10 20.498H23C23.3978 20.498 23.7794 20.34 24.0607 20.0587C24.342 19.7774 24.5 19.3959 24.5 18.998C24.5 18.6002 24.342 18.2187 24.0607 17.9374C23.7794 17.6561 23.3978 17.498 23 17.498H10C9.60218 17.498 9.22064 17.6561 8.93934 17.9374C8.65804 18.2187 8.5 18.6002 8.5 18.998C8.5 19.3959 8.65804 19.7774 8.93934 20.0587C9.22064 20.34 9.60218 20.498 10 20.498Z" fill="white"/>
<path d="M10 27.498H16C16.3978 27.498 16.7794 27.34 17.0607 27.0587C17.342 26.7774 17.5 26.3959 17.5 25.998C17.5 25.6002 17.342 25.2187 17.0607 24.9374C16.7794 24.6561 16.3978 24.498 16 24.498H10C9.60218 24.498 9.22064 24.6561 8.93934 24.9374C8.65804 25.2187 8.5 25.6002 8.5 25.998C8.5 26.3959 8.65804 26.7774 8.93934 27.0587C9.22064 27.34 9.60218 27.498 10 27.498Z" fill="white"/>
<path d="M10 34.5H15.5C15.8978 34.5 16.2794 34.342 16.5607 34.0607C16.842 33.7794 17 33.3978 17 33C17 32.6022 16.842 32.2206 16.5607 31.9393C16.2794 31.658 15.8978 31.5 15.5 31.5H10C9.60218 31.5 9.22064 31.658 8.93934 31.9393C8.65804 32.2206 8.5 32.6022 8.5 33C8.5 33.3978 8.65804 33.7794 8.93934 34.0607C9.22064 34.342 9.60218 34.5 10 34.5Z" fill="white"/>
<path d="M10.5 12.498H27.5C27.6323 12.498 27.7591 12.4456 27.8528 12.3523C27.9466 12.259 27.9995 12.1323 28 12V6.00003C27.9995 5.86759 27.9466 5.74072 27.853 5.64706C27.7593 5.55341 27.6324 5.50056 27.5 5.50003H24V5.00003C23.9976 4.22806 23.8171 3.46705 23.4725 2.77622C23.128 2.08539 22.6287 1.48337 22.0135 1.017C21.3983 0.550633 20.6838 0.232488 19.9256 0.0873213C19.1674 -0.0578451 18.3859 -0.0261179 17.642 0.180034C16.5734 0.501351 15.6391 1.16325 14.9816 2.06486C14.3241 2.96647 13.9793 4.05833 14 5.17403V5.49803H10.5C10.3672 5.49856 10.24 5.55169 10.1463 5.64577C10.0526 5.73986 10 5.86724 10 6.00003V12C10.0005 12.1323 10.0534 12.259 10.1472 12.3523C10.2409 12.4456 10.3677 12.498 10.5 12.498ZM20.5 4.49803C20.5004 4.79479 20.4128 5.085 20.2482 5.33193C20.0836 5.57887 19.8495 5.77144 19.5754 5.88528C19.3014 5.99912 18.9997 6.02911 18.7086 5.97146C18.4175 5.9138 18.15 5.7711 17.94 5.5614C17.7301 5.3517 17.587 5.08443 17.529 4.79341C17.4709 4.50238 17.5005 4.20068 17.614 3.92647C17.7275 3.65227 17.9197 3.41788 18.1664 3.25297C18.4132 3.08806 18.7032 3.00003 19 3.00003C19.3975 3.00003 19.7787 3.15779 20.06 3.43867C20.3412 3.71954 20.4995 4.10056 20.5 4.49803Z" fill="white"/>
<path d="M18.104 46L18.384 44.6C18.3987 44.5277 18.3972 44.4531 18.3795 44.3815C18.3619 44.3099 18.3286 44.2432 18.282 44.186C18.2351 44.1283 18.1759 44.0817 18.1088 44.0495C18.0418 44.0174 17.9684 44.0004 17.894 44H5C4.73478 44 4.48043 43.8946 4.29289 43.7071C4.10536 43.5196 4 43.2652 4 43V10.498C4 10.2328 4.10536 9.97843 4.29289 9.79089C4.48043 9.60336 4.73478 9.498 5 9.498H6.5C6.63226 9.498 6.75914 9.4456 6.85285 9.35226C6.94656 9.25893 6.99947 9.13226 7 9V6C6.99947 5.86755 6.94663 5.74068 6.85297 5.64703C6.75932 5.55337 6.63245 5.50053 6.5 5.5H4C2.93913 5.5 1.92172 5.92143 1.17157 6.67157C0.421427 7.42172 0 8.43913 0 9.5L0 44C0 45.0609 0.421427 46.0783 1.17157 46.8284C1.92172 47.5786 2.93913 48 4 48H17.552C17.6224 48.0004 17.6921 47.986 17.7565 47.9575C17.8208 47.9291 17.8785 47.8873 17.9255 47.8349C17.9726 47.7826 18.008 47.7209 18.0295 47.6538C18.0509 47.5868 18.0579 47.5159 18.05 47.446C17.9927 46.9641 18.0109 46.4763 18.104 46Z" fill="white"/>
<path d="M37.768 19.494C37.8391 19.4485 37.8976 19.3858 37.9381 19.3117C37.9787 19.2376 37.9999 19.1545 38 19.07V9.49805C38 8.43718 37.5786 7.41976 36.8284 6.66962C36.0783 5.91947 35.0609 5.49805 34 5.49805H31.5C31.3672 5.49858 31.24 5.5517 31.1463 5.64578C31.0526 5.73987 31 5.86725 31 6.00005V9.00005C31 9.13265 31.0527 9.25983 31.1464 9.3536C31.2402 9.44737 31.3674 9.50005 31.5 9.50005H33C33.2652 9.50005 33.5196 9.6054 33.7071 9.79294C33.8946 9.98048 34 10.2348 34 10.5V21.724C33.9998 21.8231 34.0291 21.9199 34.084 22.0023C34.1389 22.0847 34.2171 22.1489 34.3085 22.1868C34.4 22.2248 34.5007 22.2347 34.5978 22.2153C34.6949 22.1959 34.7841 22.1482 34.854 22.078L36.23 20.702C36.696 20.2433 37.2119 19.8381 37.768 19.494Z" fill="white"/>
<path d="M25.4784 40.0879C25.3551 39.965 25.2019 39.8763 25.0339 39.8308C24.8658 39.7852 24.6888 39.7843 24.5203 39.8281C24.3518 39.872 24.1977 39.959 24.0732 40.0807C23.9487 40.2024 23.8581 40.3545 23.8104 40.5219L22.0384 46.7219C21.9895 46.8934 21.9873 47.0748 22.032 47.2473C22.0768 47.4199 22.1668 47.5774 22.2929 47.7034C22.419 47.8295 22.5764 47.9196 22.749 47.9643C22.9216 48.0091 23.1029 48.0069 23.2744 47.9579L29.4744 46.1859C29.6422 46.1384 29.7947 46.0478 29.9167 45.9232C30.0387 45.7985 30.126 45.6441 30.1698 45.4753C30.2137 45.3065 30.2127 45.1291 30.1668 44.9608C30.1209 44.7925 30.0318 44.6392 29.9084 44.5159L25.4784 40.0879Z" fill="white"/>
<path d="M37.5422 26.4561C37.3547 26.2686 37.1004 26.1633 36.8352 26.1633C36.5701 26.1633 36.3158 26.2686 36.1282 26.4561L26.1082 36.4741C26.0151 36.567 25.9412 36.6774 25.8908 36.7988C25.8404 36.9203 25.8145 37.0506 25.8145 37.1821C25.8145 37.3137 25.8404 37.4439 25.8908 37.5654C25.9412 37.6869 26.0151 37.7972 26.1082 37.8901L32.1082 43.8901C32.2958 44.0776 32.5501 44.1829 32.8152 44.1829C33.0804 44.1829 33.3347 44.0776 33.5222 43.8901L43.5422 33.8701C43.7297 33.6826 43.835 33.4283 43.835 33.1631C43.835 32.898 43.7297 32.6436 43.5422 32.4561L37.5422 26.4561Z" fill="white"/>
<path d="M38.9569 23.6281C38.7694 23.8156 38.6641 24.0699 38.6641 24.3351C38.6641 24.6002 38.7694 24.8545 38.9569 25.0421L44.9569 31.0421C45.0439 31.1249 45.1465 31.1897 45.2588 31.2326C45.3711 31.2756 45.4907 31.2958 45.6109 31.2921C45.9285 31.2913 46.2337 31.1681 46.4629 30.9481C46.9497 30.4613 47.3359 29.8834 47.5994 29.2473C47.8629 28.6113 47.9985 27.9295 47.9985 27.2411C47.9985 26.5526 47.8629 25.8709 47.5994 25.2348C47.3359 24.5988 46.9497 24.0208 46.4629 23.5341C45.455 22.5512 44.098 22.0089 42.6904 22.0265C41.2827 22.0442 39.9397 22.6203 38.9569 23.6281Z" fill="white"/>
</g>
<defs>
<clipPath id="clip0_645_3161">
<rect width="48" height="48" fill="white"/>
</clipPath>
</defs>
</svg>
