<svg width="48" height="49" viewBox="0 0 48 49" fill="none" xmlns="http://www.w3.org/2000/svg">
<path d="M44 21.25C44.5304 21.25 45.0391 21.0393 45.4142 20.6642C45.7893 20.2891 46 19.7804 46 19.25V17.25C46 16.7196 45.7893 16.2109 45.4142 15.8358C45.0391 15.4607 44.5304 15.25 44 15.25H39.8C39.6951 15.2499 39.5929 15.2169 39.5078 15.1555C39.4228 15.0941 39.3591 15.0075 39.326 14.908L37.126 8.308C36.928 7.70942 36.5465 7.18843 36.0356 6.819C35.5247 6.44957 34.9105 6.25048 34.28 6.25H13.72C13.0905 6.24992 12.477 6.44784 11.9662 6.81575C11.4554 7.18366 11.0733 7.70292 10.874 8.3L8.674 14.9C8.64085 14.9995 8.57724 15.0861 8.49218 15.1475C8.40711 15.2089 8.3049 15.2419 8.2 15.242H4C3.46957 15.242 2.96086 15.4527 2.58579 15.8278C2.21071 16.2029 2 16.7116 2 17.242V19.242C2 19.7724 2.21071 20.2811 2.58579 20.6562C2.96086 21.0313 3.46957 21.242 4 21.242H5.378C5.47702 21.2418 5.57386 21.2711 5.65625 21.326C5.73864 21.3809 5.80287 21.4591 5.84078 21.5505C5.8787 21.642 5.88861 21.7427 5.86924 21.8398C5.84987 21.9369 5.80211 22.0261 5.732 22.096L2.586 25.25C2.21238 25.626 2.00185 26.134 2 26.664V33.25C2.00105 33.6347 2.11542 34.0107 2.32884 34.3308C2.54226 34.6509 2.84526 34.9011 3.2 35.05C3.28913 35.0889 3.36498 35.1529 3.41826 35.2343C3.47154 35.3156 3.49995 35.4108 3.5 35.508V40.256C3.50212 40.9178 3.76638 41.5519 4.23493 42.0193C4.70349 42.4867 5.33816 42.7495 6 42.75H10C10.6629 42.7495 11.2985 42.4859 11.7672 42.0172C12.2359 41.5485 12.4995 40.9129 12.5 40.25V35.75C12.5 35.6174 12.5527 35.4902 12.6464 35.3964C12.7402 35.3027 12.8674 35.25 13 35.25H35C35.1326 35.25 35.2598 35.3027 35.3536 35.3964C35.4473 35.4902 35.5 35.6174 35.5 35.75V40.25C35.5005 40.9129 35.7641 41.5485 36.2328 42.0172C36.7015 42.4859 37.3371 42.7495 38 42.75H42C42.6629 42.7495 43.2985 42.4859 43.7672 42.0172C44.2359 41.5485 44.4995 40.9129 44.5 40.25V35.5C44.5 35.4028 44.5285 35.3076 44.5817 35.2263C44.635 35.1449 44.7109 35.0809 44.8 35.042C45.1547 34.8931 45.4577 34.6429 45.6712 34.3228C45.8846 34.0026 45.999 33.6267 46 33.242V26.664C45.9981 26.134 45.7876 25.626 45.414 25.25L42.268 22.1C42.1979 22.0301 42.1501 21.9409 42.1308 21.8438C42.1114 21.7467 42.1213 21.646 42.1592 21.5545C42.1971 21.4631 42.2614 21.3849 42.3437 21.33C42.4261 21.2751 42.523 21.2458 42.622 21.246L44 21.25ZM33.2 10.25C33.3049 10.2501 33.4071 10.2831 33.4922 10.3445C33.5772 10.4059 33.6409 10.4925 33.674 10.592L36 17.592C36.0246 17.6673 36.0311 17.7473 36.0188 17.8256C36.0066 17.9038 35.976 17.9781 35.9296 18.0422C35.8832 18.1064 35.8222 18.1587 35.7517 18.1948C35.6812 18.2309 35.6032 18.2498 35.524 18.25H12.47C12.3913 18.2489 12.314 18.2293 12.2443 18.1928C12.1745 18.1563 12.1144 18.1039 12.0686 18.0398C12.0229 17.9758 11.9928 17.9019 11.9809 17.8241C11.969 17.7463 11.9755 17.6668 12 17.592L14.334 10.592C14.3667 10.4938 14.4291 10.4081 14.5126 10.3468C14.596 10.2856 14.6965 10.2517 14.8 10.25H33.2ZM12 30.25H6C5.73478 30.25 5.48043 30.1446 5.29289 29.9571C5.10536 29.7696 5 29.5152 5 29.25V27.25C5 26.9848 5.10536 26.7304 5.29289 26.5429C5.48043 26.3554 5.73478 26.25 6 26.25H12C12.2652 26.25 12.5196 26.3554 12.7071 26.5429C12.8946 26.7304 13 26.9848 13 27.25V29.25C13 29.5152 12.8946 29.7696 12.7071 29.9571C12.5196 30.1446 12.2652 30.25 12 30.25ZM35 27.25C35 26.9848 35.1054 26.7304 35.2929 26.5429C35.4804 26.3554 35.7348 26.25 36 26.25H42C42.2652 26.25 42.5196 26.3554 42.7071 26.5429C42.8946 26.7304 43 26.9848 43 27.25V29.25C43 29.5152 42.8946 29.7696 42.7071 29.9571C42.5196 30.1446 42.2652 30.25 42 30.25H36C35.7348 30.25 35.4804 30.1446 35.2929 29.9571C35.1054 29.7696 35 29.5152 35 29.25V27.25Z" fill="white"/>
</svg>
