<svg width="46" height="46" viewBox="0 0 46 46" fill="none" xmlns="http://www.w3.org/2000/svg">
<path d="M17.6688 28.3512C18.1087 28.7953 18.7048 29.0497 19.3298 29.0601C19.9548 29.0705 20.559 28.836 21.0134 28.4068L34.6313 15.5747C34.8688 15.3612 35.0613 15.1024 35.1973 14.8134C35.3333 14.5245 35.4102 14.2113 35.4234 13.8922C35.4367 13.5731 35.386 13.2546 35.2743 12.9554C35.1627 12.6562 34.9924 12.3823 34.7734 12.1499C34.5543 11.9175 34.2911 11.7312 33.999 11.602C33.707 11.4727 33.392 11.4032 33.0727 11.3975C32.7534 11.3917 32.4362 11.4499 32.1397 11.5685C31.8432 11.6872 31.5734 11.8639 31.3462 12.0883L19.4283 23.318L16.5322 20.3951C16.3123 20.1655 16.0488 19.9819 15.7572 19.8552C15.4655 19.7284 15.1516 19.661 14.8336 19.6568C14.5156 19.6526 14.2 19.7117 13.9052 19.8308C13.6103 19.9498 13.3421 20.1264 13.1161 20.3502C12.8902 20.5739 12.7111 20.8404 12.5892 21.1342C12.4673 21.4279 12.4051 21.7429 12.4063 22.0609C12.4074 22.3789 12.4718 22.6935 12.5958 22.9863C12.7197 23.2791 12.9007 23.5444 13.1282 23.7665L17.6688 28.3512Z" fill="white"/>
<path d="M38.4329 0H7.56497C6.57368 0.00355107 5.62424 0.39996 4.92473 1.10234C4.22522 1.80473 3.83271 2.75579 3.83322 3.74708V15.2317C3.81122 21.5027 5.50055 27.6608 8.71923 33.0427C11.9379 38.4246 16.564 42.8264 22.0991 45.7738C22.3761 45.9212 22.6851 45.9982 22.9989 45.9982C23.3127 45.9982 23.6217 45.9212 23.8988 45.7738C29.4336 42.8258 34.0594 38.4239 37.2783 33.0422C40.4973 27.6605 42.1873 21.5027 42.1666 15.2317V3.74708C42.1666 2.75562 41.7736 1.80456 41.0738 1.10223C40.374 0.399898 39.4244 0.00355001 38.4329 0V0ZM38.3332 15.2317C38.3513 20.6323 36.9429 25.9418 34.2504 30.6233C31.5579 35.3049 27.6769 39.1923 22.9999 41.8926C18.3219 39.1934 14.4402 35.3061 11.7476 30.6244C9.05495 25.9426 7.64711 20.6325 7.66655 15.2317V4.79167C7.66655 4.5375 7.76752 4.29375 7.94724 4.11402C8.12697 3.9343 8.37072 3.83333 8.62489 3.83333L37.3749 3.75667C37.6291 3.75667 37.8728 3.85763 38.0525 4.03736C38.2323 4.21708 38.3332 4.46083 38.3332 4.715V15.2317Z" fill="white"/>
</svg>
