<svg width="85" height="51" viewBox="0 0 85 51" fill="none" xmlns="http://www.w3.org/2000/svg">
<path d="M11.8127 35.237C12.606 34.607 12.9677 34.3153 12.8977 34.362C15.1843 32.472 16.981 30.9203 18.2877 29.707C19.6177 28.4936 20.7377 27.222 21.6477 25.892C22.5577 24.562 23.0127 23.267 23.0127 22.007C23.0127 21.0503 22.791 20.3036 22.3477 19.767C21.9043 19.2303 21.2393 18.962 20.3527 18.962C19.466 18.962 18.766 19.3003 18.2527 19.977C17.7627 20.6303 17.5177 21.5636 17.5177 22.777H11.7427C11.7893 20.7936 12.2093 19.137 13.0027 17.807C13.8193 16.477 14.881 15.497 16.1877 14.867C17.5177 14.237 18.9877 13.922 20.5977 13.922C23.3743 13.922 25.4627 14.6336 26.8627 16.057C28.286 17.4803 28.9977 19.3353 28.9977 21.622C28.9977 24.1186 28.146 26.4403 26.4427 28.587C24.7393 30.7103 22.5693 32.787 19.9327 34.817H29.3827V39.682H11.8127V35.237ZM31.6678 26.907C31.6678 22.8936 32.4378 19.732 33.9778 17.422C35.5411 15.112 38.0494 13.957 41.5028 13.957C44.9561 13.957 47.4528 15.112 48.9928 17.422C50.5561 19.732 51.3378 22.8936 51.3378 26.907C51.3378 30.967 50.5561 34.152 48.9928 36.462C47.4528 38.772 44.9561 39.927 41.5028 39.927C38.0494 39.927 35.5411 38.772 33.9778 36.462C32.4378 34.152 31.6678 30.967 31.6678 26.907ZM45.4578 26.907C45.4578 24.5503 45.2011 22.742 44.6878 21.482C44.1744 20.1986 43.1128 19.557 41.5028 19.557C39.8928 19.557 38.8311 20.1986 38.3178 21.482C37.8044 22.742 37.5478 24.5503 37.5478 26.907C37.5478 28.4936 37.6411 29.812 37.8278 30.862C38.0144 31.8886 38.3878 32.7286 38.9478 33.382C39.5311 34.012 40.3828 34.327 41.5028 34.327C42.6228 34.327 43.4628 34.012 44.0228 33.382C44.6061 32.7286 44.9911 31.8886 45.1778 30.862C45.3644 29.812 45.4578 28.4936 45.4578 26.907ZM72.4898 30.477H66.3998V36.707H60.7298V30.477H54.6398V25.122H60.7298V18.857H66.3998V25.122H72.4898V30.477Z" fill="white"/>
</svg>
