<svg width="46" height="46" viewBox="0 0 46 46" fill="none" xmlns="http://www.w3.org/2000/svg">
<g clip-path="url(#clip0_645_6153)">
<path d="M45.4707 5.42227L43.4524 1.38769C43.2457 0.969473 42.9258 0.617682 42.529 0.372357C42.1322 0.127031 41.6745 -0.00197432 41.208 2.28417e-05H25.8747C25.4082 -0.00197432 24.9505 0.127031 24.5537 0.372357C24.1569 0.617682 23.837 0.969473 23.6303 1.38769L21.612 5.42227C21.265 6.11961 21.0839 6.88777 21.083 7.66669V9.58336C21.0833 10.2135 21.239 10.8338 21.5362 11.3894C21.8334 11.945 22.263 12.4188 22.7869 12.7689C22.8522 12.8125 22.9057 12.8715 22.9428 12.9407C22.9799 13.0099 22.9994 13.0871 22.9997 13.1656V20.125C22.9997 21.1417 23.4035 22.1167 24.1224 22.8356C24.8413 23.5545 25.8163 23.9584 26.833 23.9584H40.2497C41.2663 23.9584 42.2414 23.5545 42.9602 22.8356C43.6791 22.1167 44.083 21.1417 44.083 20.125V13.1656C44.0833 13.0871 44.1028 13.0099 44.1399 12.9407C44.177 12.8715 44.2305 12.8125 44.2958 12.7689C44.8197 12.4188 45.2493 11.945 45.5465 11.3894C45.8437 10.8338 45.9993 10.2135 45.9997 9.58336V7.66669C45.9988 6.88777 45.8177 6.11961 45.4707 5.42227ZM36.8955 20.125C36.7684 20.125 36.6465 20.0745 36.5567 19.9847C36.4668 19.8948 36.4163 19.7729 36.4163 19.6459V18.2084C36.4163 17.4459 36.1134 16.7146 35.5743 16.1754C35.0351 15.6363 34.3038 15.3334 33.5413 15.3334C32.7788 15.3334 32.0476 15.6363 31.5084 16.1754C30.9692 16.7146 30.6663 17.4459 30.6663 18.2084V19.6459C30.6663 19.7729 30.6159 19.8948 30.526 19.9847C30.4361 20.0745 30.3143 20.125 30.1872 20.125H27.3122C27.1851 20.125 27.0632 20.0745 26.9734 19.9847C26.8835 19.8948 26.833 19.7729 26.833 19.6459V13.1675C26.8329 13.0887 26.8523 13.0111 26.8894 12.9415C26.9265 12.872 26.9802 12.8127 27.0458 12.7689C27.195 12.6681 27.3371 12.5574 27.4713 12.4373C27.5594 12.3587 27.6733 12.3153 27.7913 12.3153C27.9094 12.3153 28.0233 12.3587 28.1114 12.4373C28.813 13.0679 29.723 13.4168 30.6663 13.4168C31.6097 13.4168 32.5197 13.0679 33.2213 12.4373C33.3094 12.3587 33.4233 12.3153 33.5413 12.3153C33.6594 12.3153 33.7733 12.3587 33.8614 12.4373C34.563 13.0679 35.473 13.4168 36.4163 13.4168C37.3597 13.4168 38.2697 13.0679 38.9713 12.4373C39.0594 12.3587 39.1733 12.3153 39.2913 12.3153C39.4094 12.3153 39.5233 12.3587 39.6114 12.4373C39.7455 12.5574 39.8877 12.6681 40.0369 12.7689C40.1027 12.8124 40.1566 12.8717 40.1937 12.9413C40.2308 13.0109 40.2501 13.0886 40.2497 13.1675V19.6459C40.2499 19.7089 40.2377 19.7713 40.2137 19.8295C40.1897 19.8878 40.1544 19.9407 40.1099 19.9852C40.0654 20.0298 40.0124 20.0651 39.9542 20.0891C39.8959 20.1131 39.8335 20.1253 39.7705 20.125H36.8955Z" fill="white"/>
<path d="M24.9167 26.8333C24.4083 26.8333 23.9208 27.0353 23.5614 27.3947C23.2019 27.7542 23 28.2417 23 28.75V35.4583C23 35.7125 22.899 35.9563 22.7193 36.136C22.5396 36.3157 22.2958 36.4167 22.0417 36.4167H4.79167C4.5375 36.4167 4.29375 36.3157 4.11402 36.136C3.9343 35.9563 3.83333 35.7125 3.83333 35.4583V8.625C3.83333 8.37083 3.9343 8.12708 4.11402 7.94736C4.29375 7.76763 4.5375 7.66667 4.79167 7.66667H17.25C17.5042 7.66667 17.7479 7.5657 17.9276 7.38598C18.1074 7.20625 18.2083 6.9625 18.2083 6.70833V0.958333C18.2083 0.704167 18.1074 0.460412 17.9276 0.280689C17.7479 0.100967 17.5042 0 17.25 0L4.79167 0C3.52084 0 2.30206 0.504835 1.40345 1.40345C0.504835 2.30206 0 3.52084 0 4.79167L0 41.2083C0 41.8376 0.12394 42.4607 0.364744 43.042C0.605548 43.6234 0.958499 44.1516 1.40345 44.5966C1.84839 45.0415 2.37662 45.3945 2.95798 45.6353C3.53933 45.8761 4.16242 46 4.79167 46H22.0417C22.6709 46 23.294 45.8761 23.8754 45.6353C24.4567 45.3945 24.9849 45.0415 25.4299 44.5966C25.8748 44.1516 26.2278 43.6234 26.4686 43.042C26.7094 42.4607 26.8333 41.8376 26.8333 41.2083V28.75C26.8333 28.2417 26.6314 27.7542 26.272 27.3947C25.9125 27.0353 25.425 26.8333 24.9167 26.8333Z" fill="white"/>
</g>
<defs>
<clipPath id="clip0_645_6153">
<rect width="46" height="46" fill="white"/>
</clipPath>
</defs>
</svg>
