<svg width="74" height="49" viewBox="0 0 74 49" fill="none" xmlns="http://www.w3.org/2000/svg">
<path d="M17.6375 21.62V18.032L25.8535 6.28H30.8195V17.772H32.9515V21.62H30.8195V25H26.3735V21.62H17.6375ZM26.6855 11.168L22.3175 17.772H26.6855V11.168ZM37.3912 25.208C36.6112 25.208 35.9699 24.9827 35.4672 24.532C34.9819 24.064 34.7392 23.492 34.7392 22.816C34.7392 22.1227 34.9819 21.542 35.4672 21.074C35.9699 20.606 36.6112 20.372 37.3912 20.372C38.1539 20.372 38.7779 20.606 39.2632 21.074C39.7659 21.542 40.0172 22.1227 40.0172 22.816C40.0172 23.492 39.7659 24.064 39.2632 24.532C38.7779 24.9827 38.1539 25.208 37.3912 25.208ZM45.0671 14.808C43.4378 13.9413 42.6231 12.5807 42.6231 10.726C42.6231 9.79 42.8658 8.94067 43.3511 8.178C43.8364 7.398 44.5731 6.78267 45.5611 6.332C46.5491 5.864 47.7624 5.63 49.2011 5.63C50.6398 5.63 51.8444 5.864 52.8151 6.332C53.8031 6.78267 54.5398 7.398 55.0251 8.178C55.5104 8.94067 55.7531 9.79 55.7531 10.726C55.7531 11.662 55.5278 12.4767 55.0771 13.17C54.6438 13.8633 54.0544 14.4093 53.3091 14.808C54.2451 15.2587 54.9644 15.8827 55.4671 16.68C55.9698 17.46 56.2211 18.3787 56.2211 19.436C56.2211 20.6667 55.9091 21.7327 55.2851 22.634C54.6611 23.518 53.8118 24.194 52.7371 24.662C51.6798 25.13 50.5011 25.364 49.2011 25.364C47.9011 25.364 46.7138 25.13 45.6391 24.662C44.5818 24.194 43.7411 23.518 43.1171 22.634C42.4931 21.7327 42.1811 20.6667 42.1811 19.436C42.1811 18.3613 42.4324 17.434 42.9351 16.654C43.4378 15.8567 44.1484 15.2413 45.0671 14.808ZM51.4371 11.402C51.4371 10.6913 51.2291 10.1453 50.8131 9.764C50.4144 9.36533 49.8771 9.166 49.2011 9.166C48.5251 9.166 47.9791 9.36533 47.5631 9.764C47.1644 10.1627 46.9651 10.7173 46.9651 11.428C46.9651 12.104 47.1731 12.6413 47.5891 13.04C48.0051 13.4213 48.5424 13.612 49.2011 13.612C49.8598 13.612 50.3971 13.4127 50.8131 13.014C51.2291 12.6153 51.4371 12.078 51.4371 11.402ZM49.2011 16.732C48.3864 16.732 47.7278 16.9573 47.2251 17.408C46.7224 17.8413 46.4711 18.448 46.4711 19.228C46.4711 19.956 46.7138 20.554 47.1991 21.022C47.7018 21.49 48.3691 21.724 49.2011 21.724C50.0331 21.724 50.6831 21.49 51.1511 21.022C51.6364 20.554 51.8791 19.956 51.8791 19.228C51.8791 18.4653 51.6278 17.8587 51.1251 17.408C50.6398 16.9573 49.9984 16.732 49.2011 16.732Z" fill="white"/>
<path d="M14.0758 39.9007C14.0009 39.6689 13.8627 39.4628 13.6768 39.3054C13.491 39.148 13.2648 39.0457 13.0239 39.01L9.88016 38.5564L8.47004 35.7206C8.36215 35.5041 8.19604 35.322 7.99038 35.1947C7.78472 35.0674 7.54764 35 7.30577 35C7.06391 35 6.82683 35.0674 6.62117 35.1947C6.4155 35.322 6.2494 35.5041 6.14151 35.7206L4.73572 38.5556L1.59286 39.01C1.35308 39.0458 1.12794 39.1474 0.942514 39.3036C0.757088 39.4598 0.618657 39.6644 0.542641 39.8946C0.466301 40.1261 0.456894 40.3744 0.515504 40.611C0.574114 40.8476 0.698357 41.0628 0.873925 41.2319L3.14435 43.4312L2.60753 46.5402C2.56663 46.7792 2.59335 47.0249 2.68467 47.2495C2.77599 47.4741 2.92827 47.6688 3.12433 47.8114C3.32039 47.9541 3.55243 48.0391 3.79425 48.0569C4.03607 48.0747 4.27806 48.0246 4.4929 47.9122L7.30707 46.4413L10.1239 47.9156C10.3388 48.0282 10.581 48.0784 10.823 48.0606C11.065 48.0427 11.2972 47.9575 11.4934 47.8146C11.6895 47.6717 11.8418 47.4768 11.9329 47.2519C12.0241 47.027 12.0505 46.7811 12.0092 46.5419L11.4698 43.432L13.7402 41.2319C13.9147 41.0633 14.0386 40.8494 14.0979 40.6141C14.1572 40.3789 14.1496 40.1318 14.0758 39.9007Z" fill="white" fill-opacity="0.72"/>
<path d="M29.736 39.9007C29.6611 39.6689 29.5229 39.4628 29.337 39.3054C29.1511 39.148 28.925 39.0457 28.684 39.01L25.5403 38.5564L24.1302 35.7206C24.0223 35.5041 23.8562 35.322 23.6505 35.1947C23.4449 35.0674 23.2078 35 22.9659 35C22.7241 35 22.487 35.0674 22.2813 35.1947C22.0757 35.322 21.9096 35.5041 21.8017 35.7206L20.3959 38.5556L17.253 39.01C17.0132 39.0458 16.7881 39.1474 16.6027 39.3036C16.4172 39.4598 16.2788 39.6644 16.2028 39.8946C16.1265 40.1261 16.1171 40.3744 16.1757 40.611C16.2343 40.8476 16.3585 41.0628 16.5341 41.2319L18.8045 43.4312L18.2677 46.5402C18.2268 46.7792 18.2535 47.0249 18.3448 47.2495C18.4361 47.4741 18.5884 47.6688 18.7845 47.8114C18.9806 47.9541 19.2126 48.0391 19.4544 48.0569C19.6962 48.0747 19.9382 48.0246 20.1531 47.9122L22.9672 46.4413L25.784 47.9156C25.999 48.0282 26.2412 48.0784 26.4832 48.0606C26.7252 48.0427 26.9574 47.9575 27.1535 47.8146C27.3497 47.6717 27.5019 47.4768 27.5931 47.2519C27.6842 47.027 27.7107 46.7811 27.6694 46.5419L27.13 43.432L29.4004 41.2319C29.5749 41.0633 29.6988 40.8494 29.7581 40.6141C29.8174 40.3789 29.8098 40.1318 29.736 39.9007Z" fill="white" fill-opacity="0.72"/>
<path d="M45.3952 39.9007C45.3202 39.6689 45.182 39.4628 44.9962 39.3054C44.8103 39.148 44.5841 39.0457 44.3432 39.01L41.1995 38.5564L39.7894 35.7206C39.6815 35.5041 39.5154 35.322 39.3097 35.1947C39.1041 35.0674 38.867 35 38.6251 35C38.3832 35 38.1462 35.0674 37.9405 35.1947C37.7348 35.322 37.5687 35.5041 37.4608 35.7206L36.0551 38.5556L32.9122 39.01C32.6724 39.0458 32.4473 39.1474 32.2618 39.3036C32.0764 39.4598 31.938 39.6644 31.862 39.8946C31.7856 40.1261 31.7762 40.3744 31.8348 40.611C31.8935 40.8476 32.0177 41.0628 32.1933 41.2319L34.4637 43.4312L33.9269 46.5402C33.886 46.7792 33.9127 47.0249 34.004 47.2495C34.0953 47.4741 34.2476 47.6688 34.4437 47.8114C34.6397 47.9541 34.8718 48.0391 35.1136 48.0569C35.3554 48.0747 35.5974 48.0246 35.8122 47.9122L38.6264 46.4413L41.4432 47.9156C41.6582 48.0282 41.9004 48.0784 42.1424 48.0606C42.3844 48.0427 42.6166 47.9575 42.8127 47.8146C43.0088 47.6717 43.1611 47.4768 43.2523 47.2519C43.3434 47.027 43.3698 46.7811 43.3286 46.5419L42.7891 43.432L45.0596 41.2319C45.2341 41.0633 45.358 40.8494 45.4173 40.6141C45.4766 40.3789 45.4689 40.1318 45.3952 39.9007Z" fill="white" fill-opacity="0.72"/>
<path d="M61.0553 39.9007C60.9804 39.6689 60.8422 39.4628 60.6563 39.3054C60.4704 39.148 60.2443 39.0457 60.0034 39.01L56.8597 38.5564L55.4495 35.7206C55.3416 35.5041 55.1755 35.322 54.9699 35.1947C54.7642 35.0674 54.5271 35 54.2853 35C54.0434 35 53.8063 35.0674 53.6007 35.1947C53.395 35.322 53.2289 35.5041 53.121 35.7206L51.7152 38.5556L48.5724 39.01C48.3326 39.0458 48.1074 39.1474 47.922 39.3036C47.7366 39.4598 47.5981 39.6644 47.5221 39.8946C47.4458 40.1261 47.4364 40.3744 47.495 40.611C47.5536 40.8476 47.6778 41.0628 47.8534 41.2319L50.1238 43.4312L49.587 46.5402C49.5461 46.7792 49.5728 47.0249 49.6642 47.2495C49.7555 47.4741 49.9078 47.6688 50.1038 47.8114C50.2999 47.9541 50.5319 48.0391 50.7737 48.0569C51.0156 48.0747 51.2576 48.0246 51.4724 47.9122L54.2866 46.4413L57.1033 47.9156C57.3183 48.0282 57.5605 48.0784 57.8025 48.0606C58.0445 48.0427 58.2767 47.9575 58.4729 47.8146C58.669 47.6717 58.8213 47.4768 58.9124 47.2519C59.0036 47.027 59.03 46.7811 58.9887 46.5419L58.4493 43.432L60.7197 41.2319C60.8942 41.0633 61.0181 40.8494 61.0774 40.6141C61.1367 40.3789 61.1291 40.1318 61.0553 39.9007Z" fill="white" fill-opacity="0.72"/>
<path fill-rule="evenodd" clip-rule="evenodd" d="M73.5235 48.0546V38.7013L72.5198 38.5564L71.1097 35.7206C71.0018 35.5041 70.8357 35.322 70.63 35.1947C70.4244 35.0674 70.1873 35 69.9454 35C69.7036 35 69.4665 35.0674 69.2608 35.1947C69.0552 35.322 68.889 35.5041 68.7812 35.7206L67.3754 38.5556L64.2325 39.01C63.9927 39.0458 63.7676 39.1474 63.5822 39.3036C63.3967 39.4598 63.2583 39.6644 63.1823 39.8946C63.1059 40.1261 63.0965 40.3744 63.1552 40.611C63.2138 40.8476 63.338 41.0628 63.5136 41.2319L65.784 43.4312L65.2472 46.5402C65.2063 46.7792 65.233 47.0249 65.3243 47.2495C65.4156 47.4741 65.5679 47.6688 65.764 47.8114C65.96 47.9541 66.1921 48.0391 66.4339 48.0569C66.6757 48.0747 66.9177 48.0246 67.1325 47.9122L69.9467 46.4413L72.7635 47.9156C72.9785 48.0282 73.2207 48.0784 73.4627 48.0606C73.483 48.0591 73.5033 48.0571 73.5235 48.0546Z" fill="white" fill-opacity="0.72"/>
</svg>
