<svg width="49" height="49" viewBox="0 0 49 49" fill="none" xmlns="http://www.w3.org/2000/svg">
<g clip-path="url(#clip0_645_6172)">
<path d="M48.4999 29.002C48.5004 27.1416 47.9235 25.3269 46.8488 23.8083C45.7741 22.2897 44.2546 21.1422 42.4999 20.524V19.002C42.4999 14.2281 40.6035 9.64968 37.2278 6.27403C33.8522 2.89838 29.2738 1.00195 24.4999 1.00195C19.726 1.00195 15.1476 2.89838 11.772 6.27403C8.39631 9.64968 6.49989 14.2281 6.49989 19.002V20.524C4.7433 21.1432 3.22211 22.2922 2.14608 23.8125C1.07005 25.3327 0.492188 27.1494 0.492188 29.012C0.492188 30.8745 1.07005 32.6912 2.14608 34.2114C3.22211 35.7317 4.7433 36.8807 6.49989 37.5C6.95331 37.6603 7.43862 37.7092 7.91492 37.6427C8.39122 37.5762 8.84454 37.3961 9.23668 37.1177C9.62881 36.8393 9.94827 36.4707 10.1681 36.0429C10.388 35.6152 10.5017 35.1409 10.4999 34.66V19.002C10.4999 17.1634 10.862 15.3429 11.5656 13.6444C12.2691 11.9458 13.3004 10.4025 14.6004 9.10246C15.9004 7.80244 17.4438 6.77121 19.1423 6.06764C20.8409 5.36407 22.6614 5.00195 24.4999 5.00195C26.3384 5.00195 28.1589 5.36407 29.8575 6.06764C31.556 6.77121 33.0994 7.80244 34.3994 9.10246C35.6994 10.4025 36.7306 11.9458 37.4342 13.6444C38.1378 15.3429 38.4999 17.1634 38.4999 19.002V34.66C38.5042 35.0761 38.5954 35.4867 38.7676 35.8656C38.9398 36.2444 39.1892 36.5831 39.4999 36.86V37.996C39.4999 40.944 36.9179 41.996 34.4999 41.996H30.9439C30.5036 41.2334 29.824 40.6374 29.0105 40.3004C28.197 39.9635 27.295 39.9044 26.4445 40.1323C25.594 40.3602 24.8424 40.8623 24.3064 41.5609C23.7703 42.2595 23.4798 43.1154 23.4798 43.996C23.4798 44.8765 23.7703 45.7324 24.3064 46.431C24.8424 47.1296 25.594 47.6318 26.4445 47.8597C27.295 48.0876 28.197 48.0284 29.0105 47.6915C29.824 47.3545 30.5036 46.7585 30.9439 45.996H34.4999C39.7979 45.996 43.4999 42.706 43.4999 37.996V37.04C44.9977 36.2968 46.2589 35.1512 47.142 33.7314C48.0252 32.3117 48.4954 30.674 48.4999 29.002Z" fill="white"/>
</g>
<defs>
<clipPath id="clip0_645_6172">
<rect width="48" height="48" fill="white" transform="translate(0.5 0.5)"/>
</clipPath>
</defs>
</svg>
