<svg width="48" height="49" viewBox="0 0 48 49" fill="none" xmlns="http://www.w3.org/2000/svg">
<g clip-path="url(#clip0_645_6158)">
<path d="M47.502 25.9001C47.35 25.8123 47.1775 25.7661 47.002 25.7661C46.8265 25.7661 46.654 25.8123 46.502 25.9001C39.5468 29.4578 31.8094 31.2115 24 31.0001C16.1892 31.2122 8.45036 29.4585 1.494 25.9001C1.3417 25.8136 1.16935 25.7685 0.994182 25.7696C0.819019 25.7706 0.647196 25.8176 0.495913 25.9059C0.344631 25.9942 0.219195 26.1207 0.132164 26.2727C0.0451326 26.4247 -0.000441683 26.5969 3.22653e-06 26.7721V38.5001C3.22653e-06 44.3881 9.87 48.5001 24 48.5001C38.13 48.5001 48 44.3881 48 38.5001V26.7721C48.0013 26.5957 47.9559 26.4222 47.8684 26.269C47.7809 26.1159 47.6545 25.9886 47.502 25.9001ZM44 38.5001C44 40.6541 37.316 44.5001 24 44.5001C10.684 44.5001 4 40.6541 4 38.5001V32.1961C4.00014 32.0273 4.04299 31.8613 4.12456 31.7136C4.20613 31.5659 4.32376 31.4412 4.4665 31.3511C4.60924 31.2611 4.77245 31.2086 4.94092 31.1987C5.10939 31.1887 5.27764 31.2215 5.43 31.2941C14.678 35.6941 33.322 35.6941 42.57 31.2941C42.7224 31.2215 42.8906 31.1887 43.0591 31.1987C43.2276 31.2086 43.3908 31.2611 43.5335 31.3511C43.6763 31.4412 43.7939 31.5659 43.8754 31.7136C43.957 31.8613 43.9999 32.0273 44 32.1961V38.5001Z" fill="white"/>
<path d="M13.508 12.994L12 13C11.8674 13 11.7402 12.9473 11.6464 12.8536C11.5527 12.7598 11.5 12.6326 11.5 12.5C11.5 12.1022 11.342 11.7206 11.0607 11.4393C10.7794 11.158 10.3978 11 10 11C9.60218 11 9.22064 11.158 8.93934 11.4393C8.65804 11.7206 8.5 12.1022 8.5 12.5C8.50159 13.4278 8.87084 14.3171 9.52688 14.9731C10.1829 15.6292 11.0722 15.9984 12 16H13.514C14.5714 15.9947 15.5837 15.571 16.3295 14.8214C17.0753 14.0718 17.494 13.0574 17.494 12C17.4964 11.2978 17.3121 10.6076 16.96 10C16.8722 9.84798 16.826 9.67554 16.826 9.5C16.826 9.32446 16.8722 9.15202 16.96 9C17.3121 8.39244 17.4964 7.70221 17.494 7C17.494 5.94259 17.0753 4.92819 16.3295 4.17862C15.5837 3.42905 14.5714 3.00529 13.514 3H12C11.0721 3.00106 10.1824 3.37015 9.5263 4.0263C8.87015 4.68244 8.50106 5.57207 8.5 6.5C8.5 6.89782 8.65804 7.27936 8.93934 7.56066C9.22064 7.84196 9.60218 8 10 8C10.3978 8 10.7794 7.84196 11.0607 7.56066C11.342 7.27936 11.5 6.89782 11.5 6.5C11.4997 6.43426 11.5125 6.36913 11.5375 6.30835C11.5626 6.24756 11.5994 6.19234 11.6459 6.14586C11.6923 6.09937 11.7476 6.06256 11.8083 6.03752C11.8691 6.01249 11.9343 5.99974 12 6H13.512C13.7772 6 14.0316 6.10536 14.2191 6.29289C14.4066 6.48043 14.512 6.73478 14.512 7C14.512 7.26522 14.4066 7.51957 14.2191 7.70711C14.0316 7.89464 13.7772 8 13.512 8C13.1142 8 12.7326 8.15804 12.4513 8.43934C12.17 8.72064 12.012 9.10218 12.012 9.5C12.012 9.89782 12.17 10.2794 12.4513 10.5607C12.7326 10.842 13.1142 11 13.512 11C13.7772 11 14.0316 11.1054 14.2191 11.2929C14.4066 11.4804 14.512 11.7348 14.512 12C14.512 12.2652 14.4066 12.5196 14.2191 12.7071C14.0316 12.8946 13.7772 13 13.512 13L13.508 12.994Z" fill="white"/>
<path d="M24 16C25.1935 16 26.3381 15.5259 27.182 14.682C28.0259 13.8381 28.5 12.6935 28.5 11.5C28.5 10.3065 28.0259 9.16193 27.182 8.31802C26.3381 7.47411 25.1935 7 24 7C23.9167 6.99951 23.8358 6.97135 23.7702 6.91993C23.7046 6.86851 23.658 6.79675 23.6376 6.71593C23.6172 6.63511 23.6243 6.54981 23.6577 6.47344C23.691 6.39706 23.7488 6.33395 23.822 6.294C24.1844 6.1003 24.5891 5.9993 25 6C25.3978 6 25.7794 5.84196 26.0607 5.56066C26.342 5.27936 26.5 4.89782 26.5 4.5C26.5 4.10218 26.342 3.72064 26.0607 3.43934C25.7794 3.15804 25.3978 3 25 3C23.5416 3.00106 22.1433 3.58086 21.1121 4.61208C20.0809 5.6433 19.5011 7.04163 19.5 8.5V11.5C19.5016 12.693 19.9762 13.8367 20.8198 14.6802C21.6633 15.5238 22.807 15.9984 24 16ZM24 10C24.2967 10 24.5867 10.088 24.8334 10.2528C25.08 10.4176 25.2723 10.6519 25.3858 10.926C25.4994 11.2001 25.5291 11.5017 25.4712 11.7926C25.4133 12.0836 25.2704 12.3509 25.0607 12.5607C24.8509 12.7704 24.5836 12.9133 24.2926 12.9712C24.0017 13.0291 23.7001 12.9994 23.426 12.8858C23.1519 12.7723 22.9176 12.58 22.7528 12.3334C22.588 12.0867 22.5 11.7967 22.5 11.5C22.5005 11.1023 22.6587 10.7211 22.9399 10.4399C23.2211 10.1587 23.6023 10.0005 24 10Z" fill="white"/>
<path d="M35 16C36.193 15.9984 37.3367 15.5238 38.1802 14.6802C39.0238 13.8367 39.4984 12.693 39.5 11.5V7.5C39.5 6.30653 39.0259 5.16193 38.182 4.31802C37.3381 3.47411 36.1935 3 35 3C33.8065 3 32.6619 3.47411 31.818 4.31802C30.9741 5.16193 30.5 6.30653 30.5 7.5V11.5C30.5016 12.693 30.9762 13.8367 31.8198 14.6802C32.6633 15.5238 33.807 15.9984 35 16ZM33.5 7.5C33.5 7.10218 33.658 6.72064 33.9393 6.43934C34.2206 6.15803 34.6022 6 35 6C35.3978 6 35.7794 6.15803 36.0607 6.43934C36.342 6.72064 36.5 7.10218 36.5 7.5V11.5C36.5 11.8978 36.342 12.2794 36.0607 12.5607C35.7794 12.842 35.3978 13 35 13C34.6022 13 34.2206 12.842 33.9393 12.5607C33.658 12.2794 33.5 11.8978 33.5 11.5V7.5Z" fill="white"/>
<path d="M43 4.5C44.1046 4.5 45 3.60457 45 2.5C45 1.39543 44.1046 0.5 43 0.5C41.8954 0.5 41 1.39543 41 2.5C41 3.60457 41.8954 4.5 43 4.5Z" fill="white"/>
<path d="M10.7392 26.332C10.8874 26.372 11.0429 26.3772 11.1935 26.3474C11.3441 26.3175 11.4858 26.2534 11.6076 26.16C11.7294 26.0666 11.8281 25.9464 11.896 25.8087C11.9639 25.671 11.9992 25.5196 11.9992 25.366V21.5C11.9965 20.8406 11.8312 20.1919 11.5179 19.6116C11.2047 19.0312 10.7531 18.5371 10.2033 18.173C9.65342 17.8089 9.02225 17.586 8.36568 17.5241C7.7091 17.4621 7.04739 17.5631 6.43917 17.818C4.59329 18.5137 2.92263 19.606 1.54517 21.018C1.44919 21.1255 1.37757 21.2524 1.33521 21.3902C1.29285 21.5279 1.28075 21.6731 1.29974 21.816C1.31874 21.9588 1.36837 22.0958 1.44525 22.2177C1.52213 22.3396 1.62444 22.4434 1.74517 22.522C4.52758 24.2505 7.56182 25.5359 10.7392 26.332Z" fill="white"/>
<path d="M36 21.4999V25.3659C35.9999 25.5194 36.0352 25.6709 36.1031 25.8086C36.171 25.9463 36.2697 26.0665 36.3916 26.1599C36.5134 26.2533 36.6551 26.3174 36.8057 26.3472C36.9563 26.3771 37.1118 26.3718 37.26 26.3319C40.4388 25.5394 43.4751 24.2574 46.26 22.5319C46.3807 22.4532 46.483 22.3494 46.5599 22.2276C46.6368 22.1057 46.6864 21.9687 46.7054 21.8258C46.7244 21.683 46.7123 21.5378 46.67 21.4C46.6276 21.2623 46.556 21.1354 46.46 21.0279C45.0825 19.6159 43.4119 18.5235 41.566 17.8279C40.9583 17.572 40.2968 17.47 39.6402 17.5308C38.9836 17.5916 38.3521 17.8133 37.8017 18.1765C37.2513 18.5396 36.7989 19.0328 36.4846 19.6125C36.1704 20.1922 36.0039 20.8405 36 21.4999Z" fill="white"/>
</g>
<defs>
<clipPath id="clip0_645_6158">
<rect width="48" height="48" fill="white" transform="translate(0 0.5)"/>
</clipPath>
</defs>
</svg>
