<svg width="47" height="47" viewBox="0 0 47 47" fill="none" xmlns="http://www.w3.org/2000/svg">
<g clip-path="url(#clip0_645_3282)">
<path d="M42.6667 10.5736H41.3557C41.671 8.35492 41.8528 6.11926 41.9 3.87873C41.9128 3.37863 41.8254 2.88103 41.643 2.41521C41.4606 1.94939 41.1868 1.52476 40.8379 1.16632C40.4889 0.807881 40.0717 0.52287 39.611 0.328062C39.1502 0.133254 38.6551 0.032586 38.1548 0.0319824L8.86625 0.0319824C8.36615 0.0326104 7.87121 0.133137 7.41048 0.327662C6.94976 0.522187 6.53254 0.806791 6.18332 1.16477C5.83409 1.52274 5.5599 1.94687 5.37683 2.41226C5.19376 2.87766 5.10551 3.37493 5.11725 3.8749C5.16424 6.11975 5.34472 8.35982 5.65775 10.5832H4.33333C3.31667 10.5832 2.34165 10.9871 1.62276 11.706C0.903868 12.4249 0.5 13.3999 0.5 14.4166L0.5 19.1987C0.504647 21.1562 1.10642 23.0658 2.22495 24.6724C3.34348 26.2789 4.92553 27.506 6.75983 28.1897C7.2369 28.3659 7.7644 28.3453 8.22629 28.1325C8.68818 27.9197 9.04661 27.5321 9.22275 27.0551C9.39889 26.578 9.37829 26.0505 9.1655 25.5886C8.95271 25.1267 8.56515 24.7683 8.08808 24.5921C6.98799 24.1817 6.03923 23.4455 5.36836 22.4818C4.69749 21.5181 4.33643 20.3728 4.33333 19.1987V14.407H6.3765C9.01575 25.0042 16.7054 29.1155 23.2432 29.1155C33.9938 29.1155 39.002 20.8355 40.6292 14.407H42.6667V19.1987C42.6636 20.3728 42.3025 21.5181 41.6316 22.4818C40.9608 23.4455 40.012 24.1817 38.9119 24.5921C38.6757 24.6794 38.459 24.8123 38.2741 24.9832C38.0892 25.1542 37.9399 25.3599 37.8345 25.5886C37.7291 25.8173 37.6698 26.0645 37.66 26.3161C37.6502 26.5678 37.69 26.8188 37.7772 27.0551C37.8645 27.2913 37.9973 27.508 38.1683 27.6929C38.3393 27.8777 38.545 28.0271 38.7737 28.1325C39.0024 28.2379 39.2496 28.2971 39.5012 28.307C39.7529 28.3168 40.0039 28.2769 40.2402 28.1897C42.0743 27.5058 43.6562 26.2786 44.7747 24.6721C45.8932 23.0656 46.4951 21.1562 46.5 19.1987V14.407C46.5 13.3903 46.0961 12.4153 45.3772 11.6964C44.6584 10.9775 43.6833 10.5736 42.6667 10.5736ZM19.0591 20.5576C18.8775 20.6636 18.6672 20.7099 18.4579 20.6898C18.2486 20.6697 18.0509 20.5843 17.8928 20.4457C17.7347 20.3071 17.6241 20.1223 17.5769 19.9174C17.5296 19.7125 17.5479 19.498 17.6292 19.3041L19.3408 15.3653C19.3798 15.2765 19.3907 15.1779 19.3722 15.0828C19.3537 14.9876 19.3067 14.9003 19.2373 14.8325L16.1458 11.7965C16.0011 11.668 15.8996 11.4979 15.8553 11.3095C15.8109 11.1211 15.8258 10.9237 15.898 10.7441C15.9702 10.5645 16.096 10.4116 16.2584 10.3063C16.4208 10.201 16.6117 10.1485 16.8051 10.1558H20.3317C20.4231 10.1563 20.5126 10.1305 20.5897 10.0816C20.6669 10.0327 20.7283 9.96263 20.7668 9.87982L22.6107 5.9104C22.6966 5.74525 22.8263 5.60685 22.9854 5.51026C23.1446 5.41368 23.3272 5.3626 23.5134 5.3626C23.6996 5.3626 23.8822 5.41368 24.0414 5.51026C24.2006 5.60685 24.3302 5.74525 24.4162 5.9104L26.2581 9.8779C26.296 9.96092 26.357 10.0313 26.4338 10.0806C26.5106 10.1298 26.6 10.156 26.6912 10.1558H30.2198C30.4134 10.1481 30.6046 10.2003 30.7673 10.3055C30.93 10.4106 31.0562 10.5635 31.1286 10.7432C31.201 10.9228 31.2161 11.1205 31.1718 11.309C31.1275 11.4976 31.0259 11.6679 30.8811 11.7965L27.7876 14.8382C27.7201 14.906 27.6742 14.9922 27.6558 15.0861C27.6374 15.1799 27.6472 15.2771 27.6841 15.3653L29.3976 19.2983C29.4789 19.4922 29.4973 19.7068 29.45 19.9116C29.4027 20.1165 29.2922 20.3013 29.1341 20.44C28.9759 20.5786 28.7783 20.664 28.5689 20.684C28.3596 20.7041 28.1493 20.6579 27.9678 20.5518L23.7511 18.179C23.6794 18.1385 23.5986 18.1172 23.5163 18.1172C23.434 18.1172 23.3531 18.1385 23.2815 18.179L19.0591 20.5576Z" fill="white"/>
<path d="M23.2361 31.9903C22.2346 31.9898 21.2345 31.9148 20.2442 31.7661C20.1751 31.756 20.1046 31.7612 20.0377 31.7812C19.9708 31.8012 19.909 31.8356 19.8568 31.882C19.8046 31.9283 19.7631 31.9856 19.7354 32.0497C19.7076 32.1137 19.6941 32.1831 19.696 32.2529C19.8685 38.6968 15.2417 38.4303 14.889 38.4668C13.9255 38.5685 13.0374 39.035 12.407 39.7707C11.7766 40.5064 11.4516 41.4555 11.4986 42.4232C11.5457 43.3909 11.9613 44.3039 12.6602 44.9749C13.359 45.646 14.2882 46.0241 15.257 46.0318H31.7576C32.2561 46.0286 32.7491 45.9266 33.208 45.7318C33.6669 45.537 34.0826 45.2532 34.4312 44.8967C34.7798 44.5403 35.0543 44.1183 35.2389 43.6552C35.4235 43.1921 35.5144 42.697 35.5066 42.1985C35.5102 41.2665 35.1651 40.3668 34.5392 39.6763C33.9132 38.9858 33.0516 38.5543 32.1237 38.4668C29.2161 38.1812 27.0177 36.9334 27.1959 32.2318C27.1996 32.1601 27.1872 32.0885 27.1596 32.0222C27.1321 31.9559 27.0902 31.8966 27.0368 31.8485C26.9855 31.802 26.9245 31.7672 26.8583 31.7467C26.7921 31.7261 26.7222 31.7203 26.6535 31.7297C25.5222 31.8993 24.38 31.9864 23.2361 31.9903Z" fill="white"/>
</g>
<defs>
<clipPath id="clip0_645_3282">
<rect width="46" height="46" fill="white" transform="translate(0.5 0.0319824)"/>
</clipPath>
</defs>
</svg>
