<svg width="20" height="11" viewBox="0 0 20 11" fill="none" xmlns="http://www.w3.org/2000/svg">
<path d="M19.7558 4.90919L15.7742 0.927522C15.6576 0.811014 15.5092 0.731675 15.3475 0.699536C15.1859 0.667396 15.0184 0.683898 14.8661 0.746957C14.7139 0.810015 14.5837 0.916798 14.4922 1.05381C14.4006 1.19081 14.3517 1.3519 14.3517 1.51669V4.04002C14.3517 4.09528 14.3297 4.14827 14.2906 4.18734C14.2516 4.22641 14.1986 4.24836 14.1433 4.24836H1.25C0.918479 4.24836 0.600537 4.38005 0.366117 4.61447C0.131696 4.84889 0 5.16683 0 5.49836C0 5.82988 0.131696 6.14782 0.366117 6.38224C0.600537 6.61666 0.918479 6.74836 1.25 6.74836H14.1433C14.1986 6.74836 14.2516 6.7703 14.2906 6.80937C14.3297 6.84844 14.3517 6.90143 14.3517 6.95669V9.48002C14.3517 9.64481 14.4006 9.8059 14.4922 9.9429C14.5837 10.0799 14.7139 10.1867 14.8661 10.2498C15.0184 10.3128 15.1859 10.3293 15.3475 10.2972C15.5092 10.265 15.6576 10.1857 15.7742 10.0692L19.7558 6.08752C19.9121 5.93125 19.9998 5.71933 19.9998 5.49836C19.9998 5.27739 19.9121 5.06546 19.7558 4.90919Z" fill="#3B6097"/>
</svg>
